<svg width="22" height="35" viewBox="0 0 22 35" fill="none" xmlns="http://www.w3.org/2000/svg">
<path d="M22 22.7011C22 25.8839 22 29.0668 22 32.2496C22 33.9013 20.9109 35 19.2737 35C13.772 35 8.27723 35 2.77547 35C1.09614 35 0.014053 33.9013 0.00702651 32.2071C0 25.8485 0 19.49 0 13.1385C0 11.4939 1.10316 10.3952 2.73331 10.381C3.45002 10.381 4.17375 10.4093 4.89045 10.3243C6.3098 10.1612 7.51836 9.03414 7.78537 7.70855C8.04535 6.41132 7.30054 4.90143 6.06388 4.19256C5.60013 3.93028 5.10125 3.78851 4.56723 3.7956C4.15969 3.7956 3.75216 3.80269 3.35164 3.80269C2.29064 3.80269 1.55286 3.02293 1.54583 1.91001C1.54583 0.804172 2.27659 0.0102392 3.33759 0.00315053C5.99361 -0.00393816 8.64963 0.00315053 11.3057 0.00315053C13.786 0.00315053 16.2734 0.00315053 18.7538 0.00315053C19.604 0.00315053 20.2645 0.513536 20.4893 1.30747C20.7423 2.21482 20.4331 3.12926 19.6953 3.54749C19.4424 3.68927 19.1332 3.76015 18.8381 3.7956C18.4586 3.83813 18.0722 3.81686 17.6928 3.80269C16.4842 3.76724 15.641 4.38396 15.0508 5.38346C14.4535 6.39006 14.3622 7.43918 14.9946 8.47413C15.7394 9.70047 16.8215 10.3739 18.2689 10.381C18.6484 10.381 19.0348 10.381 19.4142 10.381C20.8687 10.4023 21.9859 11.5364 21.9859 13.0038C21.9859 16.2362 21.9859 19.4616 21.9859 22.694L22 22.7011Z" fill="#004C8F"/>
</svg>
